<svg width="744" height="1052" xmlns="http://www.w3.org/2000/svg">

 <title/>
 <metadata id="imagebot_9">image/svg+xmlTagged GeekLuis Alejandro Bernal Romero (Aztlek)Public domaingeektaggedposterremix+215224Tagged Geek</metadata>
 <g id="imagebot_2" label="Layer 1">
  <rect transform="translate(-2.22934e-05, 8.23167e-06) matrix(1, 0, 0, 1, 0, -3.61719e-06)" label="Layer 1" fill="#000000" fill-rule="nonzero" stroke="#000000" stroke-width="0.22328" stroke-linecap="round" stroke-miterlimit="4" stroke-dashoffset="0" y="0.11164" x="0.11166" height="1052.1389" width="743.87115" id="imagebot_8"/>
  <text transform="translate(-2.22934e-05, 8.23167e-06) matrix(1, 0, 0, 1, 0, -3.61719e-06)" label="Layer 1" font-size="144px" font-style="normal" font-weight="bold" text-anchor="middle" fill="#ffffff" font-family="Liberation Sans" xml:space="preserve" x="371.94177" y="926.34222" id="imagebot_6">
   <tspan id="imagebot_7" x="371.94177" y="926.34222">&lt;/geek&gt;</tspan>
  </text>
  <path transform="translate(-2.22934e-05, 8.23167e-06) matrix(1, 0, 0, 1, 0, -3.61719e-06)" label="Layer 1" fill="#ffffff" fill-rule="evenodd" id="imagebot_5" d="M376.01142,298.46492C352.07445,299.0806 341.34391,320.31452 340.51142,335.21492C340.36454,337.84394 342.20998,342.91175 345.19892,345.90242C346.69339,347.39775 348.96026,350.90169 350.98017,351.55867C353.00008,352.21565 355.75665,355.26372 357.16767,356.40242C359.98974,358.67982 361.07296,358.62652 362.57392,361.52742C364.07488,364.42832 364.52296,372.40588 367.32392,375.83992C368.69335,377.51889 371.83504,373.50688 374.10517,375.24617C379.93633,379.71378 378.01883,377.03071 379.51142,378.71492C382.4966,382.08334 382.0149,381.06338 386.13642,381.99617C393.60881,382.72399 395.49606,373.03473 403.19892,370.83992C404.66873,372.22308 405.55165,373.73632 406.13642,375.30867C405.68207,384.49247 402.31348,396.13589 406.13642,401.18367C413.37686,437.94718 409.32085,425.6747 412.63642,449.12117C395.03012,452.9405 382.28463,460.30834 365.54267,451.40242C352.2451,444.32789 353.37507,433.71216 337.51142,443.21492C334.66619,444.92019 328.80493,446.39092 331.66767,450.21492C336.24618,450.74051 349.13702,448.79459 349.19892,457.24617C331.9115,457.30577 326.73647,454.47844 307.13642,454.90242C305.02119,457.06905 306.94651,463.27208 303.63642,464.24617C280.54407,466.70714 274.65892,451.95231 261.57392,444.40242C262.34246,436.21597 260.05168,424.92776 262.76142,418.68367C265.72228,423.51099 265.19697,431.8373 268.60517,436.21492C274.924,437.47051 275.55874,433.04073 281.44892,433.87117C272.29655,388.81477 262.93259,341.23333 249.91767,301.90242C247.54081,300.37702 242.15812,303.66801 238.23017,304.24617C248.19663,346.01702 255.03767,390.26646 253.41767,442.05867C250.45448,451.5521 238.08919,451.67748 237.04267,463.08992C213.68519,462.3132 232.64021,463.72936 209.23017,462.90242L209.23017,481.58992L226.88642,481.58992C226.86562,548.5625 226.0843,639.4238 226.85522,708.33992C232.54917,707.80381 239.91085,708.33992 245.69897,708.33992C245.69897,649.83527 245.69697,544.37297 246.38647,482.93367L381.88647,482.93367C386.7021,483.85522 384.07318,477.32696 388.88647,478.24617C398.3215,483.60958 414.8133,481.93182 422.76147,488.77742L422.76147,498.12117C394.89439,506.59144 367.42552,517.33602 342.16772,528.49617C334.60031,531.84013 321.37054,536.09564 317.63647,541.33992C312.56039,548.47518 315.54157,557.0084 314.13647,567.02742C307.11291,594.90071 282.01147,659.18367 282.01147,659.18367L286.98022,661.80867L291.94897,664.43367C291.94897,664.43367 280.29376,674.5203 268.88647,678.33992C258.62412,681.77618 247.42665,691.35685 255.66772,691.93367C271.38988,693.03414 291.29197,692.86235 306.23022,687.08992C307.84788,690.14422 304.87254,690.6191 308.23022,691.93367C311.5879,693.24825 324.48526,692.07033 329.29272,691.93367C331.68484,681.90314 327.85236,678.3607 328.16772,669.80867C328.57885,658.73611 335.53983,646.69677 338.66772,634.77742C341.93225,622.34299 344.58192,610.43329 349.19897,599.74617L348.10517,594.02742C352.45359,615.44954 356.31479,636.97855 360.26142,658.46492C368.08113,661.0929 375.4619,659.58973 383.35517,662.93367C383.50351,666.23209 385.8239,669.15455 385.69892,672.49617C372.1584,691.54026 362.16767,694.02742 362.16767,694.02742C372.15983,691.55245 356.79312,694.83661 357.51142,701.58992C358.22974,708.34325 382.16767,699.24617 382.16767,699.24617C386.57099,694.77743 391.49857,695.23145 395.85517,690.33992C397.81156,694.49737 396.84073,693.68118 399.88642,692.90242C402.93211,692.12367 410.01632,691.35923 412.48017,690.05867C413.79979,676.41734 411.66572,669.14373 406.38642,657.83992L409.69892,657.77742C400.56418,627.89818 391.25685,597.07381 384.13642,566.05867C384.13642,566.05867 430.08077,562.60622 443.76142,565.27742C442.19462,588.24225 443.76142,620.29442 443.76142,645.27742C442.43358,669.43984 444.3256,685.67691 432.63642,687.05867C422.76694,688.22532 399.22368,696.35411 390.10517,698.62117C390.43337,702.57715 390.67162,703.36662 389.98017,708.33992L401.26142,708.33992C404.54441,708.33989 404.01292,705.00249 406.94892,701.15242C413.76071,698.34629 438.08838,696.19258 449.79267,695.43367C468.63867,692.39223 488.0448,698.17282 516.82392,701.21492C519.92727,702.1937 522.44892,708.33992 522.44892,708.33992L534.23017,708.21492C534.23017,708.21492 535.11794,703.2663 534.79267,698.74617C515.02558,693.20756 489.85512,693.11675 470.57392,687.08992C458.41298,687.06722 458.38642,679.1034 458.38642,647.52742L458.38642,611.55867C459.11875,597.4949 458.40332,581.1153 458.98017,567.02742C471.33517,566.92464 486.01969,571.66349 495.19892,565.87117C507.73836,557.95846 506.21871,556.21872 508.82392,537.21492C511.42911,518.21113 515.36755,478.66175 517.38642,459.55867C518.08955,452.91164 522.02723,422.20336 522.98017,414.96492C521.85973,414.80394 520.68281,414.46732 518.54267,414.02742C512.74176,445.57262 509.87674,487.6488 505.32392,520.62117C502.67491,539.8136 500.74087,562.48995 481.16767,557.68367C495.04692,542.78712 500.87347,515.24012 498.73017,486.02742C501.05599,458.79151 495.16323,445.94701 490.41767,416.24617C488.7825,406.00406 471.59561,378.51823 466.13642,371.99617C462.93929,368.17316 448.38,356.93156 442.35517,352.37117L443.04267,351.49617C434.44288,348.94381 427.54978,344.98078 420.38642,341.83992C417.40458,321.26114 402.69549,307.91474 390.69892,300.40242C385.3404,298.93084 380.44419,298.3509 376.01142,298.46492z"/>
  <text transform="translate(-2.22934e-05, 8.23167e-06) matrix(1, 0, 0, 1, 0, -3.61719e-06)" label="Layer 1" font-size="144px" font-style="normal" font-weight="bold" text-anchor="middle" fill="#ffffff" font-family="Liberation Sans" id="imagebot_3" y="199.84811" x="371.94177" xml:space="preserve">
   <tspan y="199.84811" x="371.94177" id="imagebot_4">&lt;geek&gt;</tspan>
  </text>
  <title>Layer 1</title>
 </g>
</svg>